# xmcd
# 
# Track frame offsets:
#     182
#     23837
#     42700
#     68335
#     90645
#     109962
#     144062
#     165182
#     190225
#     207652
#     227675
#     247370
#     267780
#     286090
#     309265
# 
# Disc length: 4394
# 
# Revision: 2
# Processed by: cddbd v1.5.2PL0 Copyright (c) Steve Scherf et al.
# Submitted via: fre:ac v1.0.17
# 
DISCID=cb11280f
DTITLE=Johnny Gill - Let's Get The Mood Right
DYEAR=1996
DGENRE=R&B
TTITLE0=Let's Get The Mood Right
TTITLE1=Touch
TTITLE2=Maybe
TTITLE3=Having Illusions
TTITLE4=Bring It On
TTITLE5=Take Me (I'm Yours)
TTITLE6=Love In An Elevator
TTITLE7=It's Your Body (Feat. Roger Troutman)
TTITLE8=Someone To Love
TTITLE9=4 U Alone
TTITLE10=Love U Right
TTITLE11=Simply Say I Love You (Feat. Stevie Wonder)
TTITLE12=I Know You Want Me
TTITLE13=So Gentle
TTITLE14=All That He's Supposed To Be (Bonus Track)
EXTD=
EXTT0=
EXTT1=
EXTT2=
EXTT3=
EXTT4=
EXTT5=
EXTT6=
EXTT7=
EXTT8=
EXTT9=
EXTT10=
EXTT11=
EXTT12=
EXTT13=
EXTT14=
PLAYORDER=
